{"title":"Bice skoro propast sveta - It Rains in My Village (1968)","uid":15456823,"size":706780596,"categoryP":"video","categoryS":"movies","magnet":"?xt=urn:btih:2f564998b11188f20c9a73330116d19548ee75ed&amp;dn=Bice+skoro+propast+sveta+-+It+Rains+in+My+Village+%281968%29&amp;tr=udp%3A%2F%2Ftracker.leechers-paradise.org%3A6969&amp;tr=udp%3A%2F%2Fzer0day.ch%3A1337&amp;tr=udp%3A%2F%2Fopen.demonii.com%3A1337&amp;tr=udp%3A%2F%2Ftracker.coppersurfer.tk%3A6969&amp;tr=udp%3A%2F%2Fexodus.desync.com%3A6969","seeders":1,"leechers":0,"uploader":null,"files":5,"time":1469995206,"description":"propast sveta (1968)Bice skoro propast sveta [It Rains in My Village] (1968).avi\r\nFormat                      : AVI\r\nFormat/Info                 : Audio Video Interleave\r\nFile size                   : 673 MiB\r\nDuration                    : 1h 16mn\r\nOverall bit rate            : 1 229 Kbps\r\nWriting library             : VirtualDub build 15654/release\r\n\r\nVideo\r\nID                          : 0\r\nFormat                      : MPEG-4 Visual\r\nFormat settings, BVOP       : 1\r\nFormat settings, QPel       : No\r\nFormat settings, GMC        : No warppoints\r\nFormat settings, Matrix     : Default (H.263)\r\nMuxing mode                 : Packed bitstream\r\nCodec ID                    : DX50\r\nCodec ID/Hint               : DivX 5\r\nDuration                    : 1h 16mn\r\nBit rate                    : 1 196 Kbps\r\nWidth                       : 768 pixels\r\nHeight                      : 576 pixels\r\nDisplay aspect ratio        : 4:3\r\nFrame rate                  : 25.000 fps\r\nColor space                 : YUV\r\nChroma subsampling          : 4:2:0\r\nBit depth                   : 8 bits\r\nScan type                   : Progressive\r\nCompression mode            : Lossy\r\nBits/(Pixel*Frame)          : 0.108\r\nStream size                 : 655 MiB (97%)\r\nWriting library             : DivX 5.0.5 (UTC 2003-04-24)\r\n\r\nAudio\r\nID                          : 1\r\nFormat                      : MPEG Audio\r\nFormat version              : Version 2\r\nFormat profile              : Layer 3\r\nCodec ID                    : 55\r\nCodec ID/Hint               : MP3\r\nDuration                    : 1h 16mn\r\nBit rate mode               : Constant\r\nBit rate                    : 24.0 Kbps\r\nChannel(s)                  : 1 channel\r\nSampling rate               : 22.05 KHz\r\nCompression mode            : Lossy\r\nDelay relative to video     : 250ms\r\nStream size                 : 13.1 MiB (2%)\r\nAlignment                   : Split accross interleaves\r\nInterleave, duration        : 40 ms (1.00 video frame)\r\nInterleave, preload duratio : 500 ms","torrent":{"xt":"urn:btih:2f564998b11188f20c9a73330116d19548ee75ed","amp;dn":"Bice+skoro+propast+sveta+-+It+Rains+in+My+Village+%281968%29","amp;tr":["udp%3A%2F%2Ftracker.leechers-paradise.org%3A6969","udp%3A%2F%2Fzer0day.ch%3A1337","udp%3A%2F%2Fopen.demonii.com%3A1337","udp%3A%2F%2Ftracker.coppersurfer.tk%3A6969","udp%3A%2F%2Fexodus.desync.com%3A6969"],"infoHash":"2f564998b11188f20c9a73330116d19548ee75ed","infoHashBuffer":{"type":"Buffer","data":[47,86,73,152,177,17,136,242,12,154,115,51,1,22,209,149,72,238,117,237]},"announce":[],"urlList":[]}}